<svg width="1024" height="1024" viewBox="0 0 1024 1024" fill="none" xmlns="http://www.w3.org/2000/svg">
<rect width="1024" height="1024" fill="url(#paint0_linear_0_57)"/>
<path d="M517.257 553.584C515.969 548.051 508.031 548.051 506.743 553.584L457.465 765.373C456.87 767.936 455.474 770.247 453.476 771.976L392.331 824.92C390.038 826.906 387.098 828 384.055 828H273.095C261.971 828 256.313 814.733 264.059 806.809L430.98 636.068C434.298 632.672 431.874 626.986 427.106 626.986H333.039C330.568 626.986 328.153 627.707 326.092 629.06L198.025 713.149C189.655 718.644 178.487 712.69 178.487 702.732V613.525C178.487 609.018 180.934 604.86 184.889 602.645L304.656 535.571C306.545 534.513 308.676 533.958 310.844 533.958H371.749C377.017 533.958 379.163 527.237 374.857 524.228L151.338 367.947C147.991 365.606 146 361.797 146 357.735V248.514C146 238.46 157.36 232.525 165.714 238.214L446.89 429.695C452.332 433.402 459.737 432.308 463.855 427.186L502.158 379.543C507.198 373.274 516.802 373.274 521.842 379.543L560.209 427.266C564.299 432.354 571.643 433.473 577.083 429.838L858.378 241.861C866.741 236.273 878 242.219 878 252.223V357.735C878 361.797 876.009 365.606 872.662 367.947L649.143 524.228C644.837 527.237 646.983 533.958 652.251 533.958H713.156C715.323 533.958 717.455 534.513 719.343 535.571L839.111 602.645C843.065 604.86 845.513 609.018 845.513 613.525V702.732C845.513 712.69 834.344 718.644 825.976 713.149L697.908 629.06C695.847 627.707 693.432 626.986 690.961 626.986H595.522C590.743 626.986 588.324 632.692 591.662 636.082L759.758 806.777C767.547 814.687 761.9 828 750.752 828H639.945C636.902 828 633.962 826.906 631.668 824.92L570.524 771.976C568.526 770.247 567.13 767.936 566.535 765.373L517.257 553.584Z" fill="white"/>
<defs>
<linearGradient id="paint0_linear_0_57" x1="510.742" y1="17.6511" x2="510.742" y2="1024" gradientUnits="userSpaceOnUse">
<stop stop-color="#5C41FF"/>
<stop offset="1" stop-color="#0066FF"/>
</linearGradient>
</defs>
</svg>
