<svg width="1182" height="1182" viewBox="0 0 1182 1182" fill="none" xmlns="http://www.w3.org/2000/svg">
<rect width="1182" height="1182" rx="220" fill="url(#paint0_linear_235_2)"/>
<path d="M593.923 607.418C593.208 604.316 588.792 604.316 588.077 607.418L531.878 851.209C531.548 852.644 530.773 853.938 529.664 854.908L460.466 915.383C459.191 916.498 457.554 917.112 455.86 917.112H318.62C312.437 917.112 309.29 909.683 313.592 905.242L508.493 704.02C510.337 702.116 508.988 698.932 506.339 698.932H396.587C395.212 698.932 393.867 699.338 392.72 700.097L243.219 799.176C238.566 802.259 232.352 798.923 232.352 793.341V680.489C232.352 677.965 233.711 675.637 235.908 674.395L369.524 598.866C370.575 598.272 371.762 597.96 372.969 597.96H449.034C451.961 597.96 453.155 594.197 450.763 592.509L200.38 415.813C198.522 414.501 197.417 412.368 197.417 410.093V275.695C197.417 270.059 203.737 266.734 208.382 269.926L525.993 488.239C529.022 490.32 533.144 489.706 535.434 486.831L585.525 423.946C588.327 420.427 593.673 420.427 596.475 423.946L646.602 486.876C648.877 489.732 652.964 490.36 655.991 488.318L973.669 274.049C978.319 270.913 984.583 274.244 984.583 279.852V410.093C984.583 412.368 983.478 414.501 981.62 415.813L731.237 592.509C728.845 594.197 730.039 597.96 732.966 597.96H809.031C810.238 597.96 811.425 598.272 812.476 598.866L946.092 674.395C948.289 675.637 949.648 677.965 949.648 680.489V793.341C949.648 798.923 943.434 802.259 938.781 799.176L789.28 700.097C788.133 699.338 786.788 698.932 785.413 698.932H674.152C671.497 698.932 670.15 702.127 672.004 704.027L868.306 905.224C872.632 909.658 869.491 917.112 863.296 917.112H726.14C724.446 917.112 722.809 916.498 721.534 915.383L652.336 854.908C651.227 853.938 650.452 852.644 650.122 851.209L593.923 607.418Z" fill="white"/>
<defs>
<linearGradient id="paint0_linear_235_2" x1="-5.42038e-07" y1="11.1886" x2="1164.02" y2="1175.21" gradientUnits="userSpaceOnUse">
<stop stop-color="#5C41FF"/>
<stop offset="1" stop-color="#0265FF"/>
</linearGradient>
</defs>
</svg>
