<?xml version="1.0" standalone="no"?>
<!DOCTYPE svg PUBLIC "-//W3C//DTD SVG 20010904//EN"
 "http://www.w3.org/TR/2001/REC-SVG-20010904/DTD/svg10.dtd">
<svg version="1.0" xmlns="http://www.w3.org/2000/svg"
 width="1182.000000pt" height="1182.000000pt" viewBox="0 0 1182.000000 1182.000000"
 preserveAspectRatio="xMidYMid meet">
<metadata>
Created by potrace 1.14, written by Peter Selinger 2001-2017
</metadata>
<g transform="translate(0.000000,1182.000000) scale(0.100000,-0.100000)"
fill="#000000" stroke="none">
<path d="M1977 11809 c-396 -38 -834 -217 -1147 -468 -95 -76 -271 -253 -350
-351 -263 -329 -428 -739 -469 -1164 -15 -150 -15 -7676 -1 -7831 39 -416 212
-845 469 -1165 76 -95 253 -271 351 -350 329 -263 739 -428 1164 -469 150 -15
7676 -15 7831 -1 416 39 845 212 1165 469 95 76 271 253 350 351 263 329 428
739 469 1164 15 150 15 7676 1 7831 -39 416 -212 845 -469 1165 -76 95 -253
271 -351 350 -329 263 -739 428 -1164 469 -134 13 -7714 13 -7849 0z m1695
-3779 c1158 -796 1607 -1100 1627 -1100 15 0 34 6 43 13 9 6 131 157 271 334
140 176 265 324 276 328 12 3 30 3 41 0 11 -4 136 -151 276 -328 141 -177 263
-328 272 -334 9 -7 28 -13 44 -13 20 0 452 286 1629 1080 1160 783 1609 1080
1628 1080 16 0 36 -9 47 -21 18 -20 19 -48 22 -684 1 -398 -1 -673 -7 -687 -7
-18 -394 -297 -1276 -919 -1035 -730 -1265 -897 -1263 -914 3 -20 10 -20 406
-23 l403 -2 683 -387 c498 -281 687 -393 695 -410 8 -16 11 -204 11 -597 0
-565 0 -574 -21 -600 -14 -17 -30 -26 -50 -26 -22 0 -220 127 -792 505 l-762
505 -576 0 c-529 0 -577 -1 -583 -17 -4 -10 3 -27 21 -47 40 -43 1593 -1637
1795 -1842 146 -148 168 -174 168 -202 0 -19 -8 -40 -20 -52 -20 -20 -33 -20
-733 -20 l-714 0 -364 318 -364 318 -283 1229 c-169 737 -288 1236 -297 1244
-13 14 -17 14 -30 1 -9 -9 -127 -506 -295 -1235 -175 -760 -287 -1229 -298
-1243 -9 -12 -174 -160 -366 -327 l-349 -305 -711 0 c-794 0 -756 -3 -756 66
0 32 14 50 142 182 78 81 520 538 982 1015 594 614 841 875 841 890 l0 22
-570 3 -570 2 -763 -505 c-829 -549 -813 -540 -851 -468 -15 30 -16 1151 0
1186 8 17 197 129 695 410 l684 387 392 0 c216 0 399 4 406 9 8 5 12 16 10 24
-1 9 -571 417 -1266 908 -874 616 -1266 899 -1273 916 -5 14 -9 306 -9 702 0
671 0 679 21 705 14 18 30 26 50 26 24 0 379 -240 1631 -1100z"/>
</g>
</svg>
